<?xml version="1.0" encoding="utf-8"?>
<!-- Generator: Adobe Illustrator 26.0.1, SVG Export Plug-In . SVG Version: 6.00 Build 0)  -->
<svg version="1.1" id="icon_edit" xmlns="http://www.w3.org/2000/svg" xmlns:xlink="http://www.w3.org/1999/xlink" x="0px"
   y="0px" viewBox="0 0 17.29 18.02" style="enable-background:new 0 0 17.29 18.02;" xml:space="preserve">
<style type="text/css">
  .st0{fill:#0F54A4;}
</style>
<g>
  <path class="st0" d="M0.33,15.74c-0.27,0.86-0.44,1.63-0.24,1.78c0.2,0.14,0.86-0.06,1.61-0.36C1.25,16.37,0.67,15.94,0.33,15.74z"
    />
  <path class="st0" d="M5.71,15.01c0,0-0.18-0.66-1.45-1.86c-1.27-1.2-2.05-1.47-2.05-1.47s-0.7,1.64-1.16,3.07
    c0.4,0.23,1.09,0.74,1.62,1.67C4.08,15.86,5.71,15.01,5.71,15.01z"/>
  <path class="st0" d="M16.98,2.32l-2-2.01c-0.41-0.41-1.09-0.41-1.5,0l-1.2,1.2l3.5,3.51l1.2-1.2C17.4,3.41,17.4,2.73,16.98,2.32z"
    />
  <polygon class="st0" points="2.21,18.02 13.24,18.02 14.74,17.14 4.08,17.14  "/>
  <path class="st0" d="M3.3,10.51c-0.05,0.05-0.1,0.11-0.14,0.17c0.28,0.13,1.01,0.53,2.07,1.52c1.03,0.98,1.39,1.62,1.51,1.87
    c0.02-0.02,0.04-0.03,0.06-0.05l8.08-8.1l-3.5-3.51L3.3,10.51z"/>
</g>
</svg>
