<?xml version="1.0" encoding="utf-8"?>
<!-- Generator: Adobe Illustrator 26.0.2, SVG Export Plug-In . SVG Version: 6.00 Build 0)  -->
<svg version="1.1" id="icon_dm" xmlns="http://www.w3.org/2000/svg" xmlns:xlink="http://www.w3.org/1999/xlink" x="0px" y="0px"
	 viewBox="0 0 121.1 81" style="enable-background:new 0 0 121.1 81;" xml:space="preserve">
<style type="text/css">
	.st0{fill:#1058B1;}
</style>
<g>
	<polygon class="st0" points="0,6.4 0,73.8 41.3,40.5 	"/>
	<path class="st0" d="M60.7,48.6L60.7,48.6c0.9,0,1.8-0.3,2.6-0.7l0.2-0.1c0,0,0.1-0.1,0.1-0.1l2.3-1.9L121,0.3
		c-0.1-0.2-0.3-0.3-0.5-0.3H0.6C0.5,0,0.4,0.1,0.2,0.1l57.6,47.5C58.6,48.2,59.6,48.6,60.7,48.6z"/>
	<path class="st0" d="M66.8,51.5c-1.6,1.3-3.8,2.1-6.1,2.1c-2.3,0-4.4-0.7-6.1-2.1l-9.5-7.8L0,80.2v0.1C0,80.7,0.3,81,0.6,81h119.8
		c0.3,0,0.6-0.3,0.6-0.6v-0.1L75.9,43.9L66.8,51.5z"/>
	<polygon class="st0" points="79.9,40.7 121.1,73.8 121.1,6.7 	"/>
</g>
</svg>
